#!OML:ASF X:\für Bonn\!DataBase\2005_08_10_Bjorn_Final\c3d\bjorn.ASF
:FULLY-SPECIFIED
:DEGREES
63
root 3.28957 18.7785 1.06415 -193.248 -32.1571 178.659
lowerback 27.0823 7.63606 -0.288651
upperback 19.914 4.83095 -7.24281
thorax 7.86244 0.934927 -8.77853
lowerneck -13.4376 -11.9848 -7.17173
upperneck -0.983563 -17.1826 24.0317
head 4.85811 -8.12836 6.8867
rclavicle -2.06736e-014 5.24792e-014
rhumerus -26.9282 -18.0256 -72.2409
rradius 27.7112
rwrist 13.3864
rhand -16.8344 19.0841
rfingers 7.12502
rthumb 9.39511 -10.6866
lclavicle -2.06736e-014 5.24792e-014
lhumerus 7.44717 -10.1128 65.7284
lradius 21.4475
lwrist -20.8454
lhand -37.2978 -17.4247
lfingers 7.12502
lthumb -10.362 12.3
rfemur -4.71997 -7.85792 17.6639
rtibia 39.6927
rfoot -14.4095 14.8444
rtoes -12.2355
lfemur -47.5584 20.5109 -4.42948
ltibia 141.859
lfoot -11.4026 -25.083
ltoes -25.0368
64
root 3.29629 18.8062 1.01619 -194.79 -31.0471 178.673
lowerback 27.8502 8.37167 -0.502349
upperback 19.905 5.50957 -7.47317
thorax 7.63276 1.19636 -9.08281
lowerneck -13.0718 -11.9437 -6.68283
upperneck -0.654454 -17.3009 24.1071
head 4.87962 -8.18853 6.83138
rclavicle 2.38542e-014 5.24792e-014
rhumerus -26.2196 -16.6048 -72.6708
rradius 28.2363
rwrist 12.9789
rhand -16.9038 19.1854
rfingers 7.12502
rthumb 9.32816 -10.5883
lclavicle 2.38542e-014 5.24792e-014
lhumerus 8.42232 -9.93288 64.9098
lradius 20.3797
lwrist -22.4782
lhand -37.1868 -18.0489
lfingers 7.12502
lthumb -10.2549 11.6811
rfemur -2.65624 -7.6125 17.6445
rtibia 39.0769
rfoot -13.5352 15.3569
rtoes -11.2525
lfemur -51.2503 21.8425 -5.60734
ltibia 142.656
lfoot -11.4736 -25.7722
ltoes -24.6705
65
root 3.30358 18.8326 0.96848 -196.334 -30.0024 178.692
lowerback 28.6135 9.08247 -0.667214
upperback 19.92 6.14741 -7.69249
thorax 7.44057 1.43868 -9.40596
lowerneck -12.6218 -11.8978 -6.18694
upperneck -0.44567 -17.3852 24.1562
head 4.84079 -8.24854 6.77908
rclavicle 3.18055e-014 -4.77083e-015
rhumerus -25.3775 -15.4071 -73.0359
rradius 28.6042
rwrist 12.7038
rhand -16.8962 19.3316
rfingers 7.12502
rthumb 9.33547 -10.4417
lclavicle 3.18055e-014 -4.77083e-015
lhumerus 9.41815 -10.5258 63.8521
lradius 20.1211
lwrist -23.1619
lhand -36.9122 -17.4044
lfingers 7.12502
lthumb -9.98995 12.3386
rfemur -0.593092 -7.24454 17.6668
rtibia 38.4485
rfoot -12.5513 15.7215
rtoes -10.0045
lfemur -55.1977 22.5026 -7.21719
ltibia 143.07
lfoot -11.1882 -26.0849
ltoes -23.1613
66
root 3.31028 18.864 0.916463 -197.943 -28.962 178.74
lowerback 29.4048 9.77915 -0.828664
upperback 19.9454 6.7441 -7.88219
thorax 7.24939 1.6523 -9.70217
lowerneck -12.1517 -11.816 -5.82657
upperneck -0.221844 -17.417 24.3188
head 4.82044 -8.28172 6.79222
rclavicle 5.40694e-014 1.03368e-013
rhumerus -24.4082 -14.3723 -73.3169
rradius 28.842
rwrist 12.6029
rhand -16.7807 19.4902
rfingers 7.12502
rthumb 9.44693 -10.278
lclavicle 5.40694e-014 1.03368e-013
lhumerus 10.469 -11.3266 62.712
lradius 20.2354
lwrist -22.9358
lhand -36.8485 -17.0217
lfingers 7.12502
lthumb -9.9285 12.7241
rfemur 1.56031 -6.771 17.7574
rtibia 37.7669
rfoot -11.5192 15.9995
rtoes -8.86394
lfemur -59.5313 22.3478 -9.41944
ltibia 143.082
lfoot -11.4003 -25.3098
ltoes -23.6681
67
root 3.31602 18.9014 0.859874 -199.525 -27.9418 178.727
lowerback 30.1829 10.4825 -1.03258
upperback 19.9521 7.32605 -8.07986
thorax 7.04564 1.85137 -9.99012
lowerneck -11.5798 -11.6796 -5.54076
upperneck -0.0642812 -17.3767 24.6455
head 4.77767 -8.29248 6.88547
rclavicle -3.18055e-015 7.95139e-014
rhumerus -23.4272 -13.5068 -73.5331
rradius 29.0518
rwrist 12.6795
rhand -16.508 19.6327
rfingers 7.12502
rthumb 9.71008 -10.1235
lclavicle -3.18055e-015 7.95139e-014
lhumerus 11.7403 -11.7182 61.7237
lradius 20.2751
lwrist -22.809
lhand -37.3852 -17.5818
lfingers 7.12502
lthumb -10.4462 12.1387
rfemur 3.73332 -6.21475 17.8299
rtibia 37.0643
rfoot -10.4308 16.2377
rtoes -7.64976
lfemur -64.1396 21.3555 -12.0526
ltibia 142.634
lfoot -12.1125 -23.4423
ltoes -26.2526
68
root 3.32129 18.9358 0.800525 -201.079 -26.9614 178.7
lowerback 30.8736 11.167 -1.3708
upperback 19.9951 7.84957 -8.15813
thorax 6.88324 1.99402 -10.0654
lowerneck -11.1545 -11.51 -5.49754
upperneck 0.0757201 -17.248 24.9748
head 4.76249 -8.25138 7.02239
rclavicle -4.45278e-014 3.49861e-014
rhumerus -22.2571 -12.4129 -73.5266
rradius 29.2027
rwrist 12.7396
rhand -16.0875 19.7674
rfingers 7.12502
rthumb 10.1157 -9.96948
lclavicle -4.45278e-014 3.49861e-014
lhumerus 13.0829 -11.8799 60.9148
lradius 20.5451
lwrist -22.3985
lhand -38.2032 -18.8189
lfingers 7.12502
lthumb -11.2353 10.8603
rfemur 5.79253 -5.65292 17.9138
rtibia 36.5464
rfoot -9.43175 16.4424
rtoes -6.5928
lfemur -68.5157 20.0383 -14.3821
ltibia 141.764
lfoot -12.6653 -21.3497
ltoes -28.5659
69
root 3.32588 18.9646 0.737924 -202.525 -26.0346 178.629
lowerback 31.4201 11.8541 -1.74756
upperback 20.0661 8.37623 -8.19984
thorax 6.80287 2.13307 -10.0796
lowerneck -10.7721 -11.3497 -5.37506
upperneck 0.0477434 -17.0906 25.188
head 4.67811 -8.21099 7.11487
rclavicle 2.06736e-014 -2.54444e-014
rhumerus -21.0052 -11.1834 -73.4231
rradius 29.3576
rwrist 12.6464
rhand -15.5159 19.7939
rfingers 7.12502
rthumb 10.6672 -9.91537
lclavicle 2.06736e-014 -2.54444e-014
lhumerus 14.5836 -12.4761 59.9773
lradius 21.28
lwrist -21.0356
lhand -38.9283 -20.0319
lfingers 7.12502
lthumb -11.9345 9.60786
rfemur 7.68687 -5.10713 17.9838
rtibia 36.1424
rfoot -8.50843 16.5975
rtoes -5.73795
lfemur -72.6512 18.5065 -16.3446
ltibia 140.511
lfoot -12.6964 -19.1719
ltoes -29.0231
